<?xml version="1.0" encoding="UTF-8"?>
<svg width="1366px" height="768px" viewBox="0 0 1366 768" xmlns="http://www.w3.org/2000/svg" xmlns:xlink="http://www.w3.org/1999/xlink" version="1.1">
 <!-- Generated by Pixelmator Pro 1.5.4 -->
 <defs>
  <linearGradient id="linear-gradient" gradientUnits="userSpaceOnUse" x1="1111.328" y1="68.588" x2="1111.328" y2="280">
   <stop offset="0" stop-color="#383838" stop-opacity="1"/>
   <stop offset="1" stop-color="#ffffff" stop-opacity="1"/>
  </linearGradient>
 </defs>
 <path id="Path" d="M1167.128 186.874 C1167.128 186.874 1143.691 196.694 1157.308 219.476 1170.925 242.258 1180.745 241.472 1197.504 236.89 1214.132 232.307 1233.117 227.07 1227.094 173.257 1221.072 119.445 1159.534 113.422 1150.107 111.851 L1145.263 124.027 C1145.263 124.027 1135.443 94.437 1123.266 83.832 1111.09 73.226 1045.232 45.207 1018.652 109.625 1018.652 109.625 974.66 69.429 908.802 114.993 842.943 160.426 870.963 259.672 918.621 274.074 966.411 288.476 1030.043 274.86 1031.484 227.856 1033.055 180.851 964.84 151.392 949.652 202.062 949.652 202.062 944.284 199.836 944.284 193.028 944.284 186.22 985.134 146.809 1032.924 188.445 1032.924 188.445 1050.338 146.809 1093.545 153.618 1136.752 160.426 1132.955 225.63 1103.365 205.205 1103.365 205.205 1126.67 208.609 1114.756 182.423 1102.841 156.236 1065.526 167.365 1060.943 174.174 1056.361 180.982 1029.912 230.212 1074.56 259.803 1119.207 289.393 1198.028 281.799 1214.001 266.611 1214.001 266.611 1252.626 272.634 1293.607 238.592 1306.438 227.856 1348.86 237.021 1352.657 239.377 1352.657 239.377 1349.645 218.952 1287.453 224.189 1267.683 227.201 1260.22 246.971 1232.201 237.806 1214.132 230.212 1198.289 270.932 1155.737 240.818 1142.906 231.652 1129.944 191.457 1167.128 186.874 Z" fill-opacity="1" fill="url(#linear-gradient)" stroke="none"/>
 <defs>
  <linearGradient id="linear-gradient-1" gradientUnits="userSpaceOnUse" x1="1100.1" y1="400.761" x2="1100.1" y2="601.422">
   <stop offset="0" stop-color="#383838" stop-opacity="1"/>
   <stop offset="1" stop-color="#ffffff" stop-opacity="1"/>
  </linearGradient>
 </defs>
 <path id="Path-1" d="M850.1 513.752 C850.1 513.752 865.008 494.926 883.834 493.904 902.66 492.881 922.083 526.019 944.317 523.634 981.969 519.63 986.399 450.373 1016.726 438.362 1089.135 409.569 1107.961 434.358 1110.943 445.347 1113.924 456.251 1105.235 511.878 1141.695 507.875 1168.444 504.893 1152.599 474.481 1152.599 474.481 1152.599 474.481 1153.621 496.033 1146.636 497.993 1139.651 499.952 1115.883 502.934 1123.806 453.355 1131.728 403.776 1165.462 399.346 1190.252 401.05 1215.041 402.754 1244.771 425.669 1241.875 462.299 1241.875 462.299 1250.82 428.48 1278.591 432.484 1306.362 436.488 1302.358 472.181 1300.399 476.1 1300.399 476.1 1352.959 491.944 1349.978 536.583 1346.996 581.22 1296.395 610.014 1263.683 599.11 1230.971 588.206 1219.045 526.701 1261.724 522.697 1304.402 518.693 1267.687 579.261 1258.742 546.464 1258.742 546.464 1257.72 565.291 1271.605 562.309 1285.491 559.327 1299.376 517.671 1266.665 511.708 1233.953 505.745 1226.967 541.438 1214.104 564.268 1201.241 587.098 1135.732 617.851 1106.939 560.265 1106.939 560.265 1116.906 590.165 1103.957 595.958 1086.068 603.88 1070.223 595.958 1063.323 579.091 1063.323 579.091 1060.341 597.917 1034.53 583.095 1008.718 568.187 1000.796 532.493 1007.781 514.689 1014.766 496.8 1046.456 466.388 1068.264 500.974 1090.072 535.56 1057.36 559.327 1049.438 525.593 1049.438 525.593 1041.004 547.146 1067.327 552.342 1082.235 555.324 1082.235 520.567 1081.212 508.726 1080.19 496.8 1058.382 473.033 1030.611 476.952 1002.84 480.955 997.899 528.575 995.855 542.46 993.896 556.346 965.102 579.176 942.272 559.327 919.442 539.479 903.597 510.686 879.745 509.749 863.985 509.067 866.967 513.752 850.1 513.752 Z" fill-opacity="1" fill="url(#linear-gradient-1)" stroke="none"/>
 <defs>
  <linearGradient id="linear-gradient-2" gradientUnits="userSpaceOnUse" x1="746.939" y1="584.397" x2="746.939" y2="730">
   <stop offset="0" stop-color="#383838" stop-opacity="1"/>
   <stop offset="1" stop-color="#ffffff" stop-opacity="1"/>
  </linearGradient>
 </defs>
 <path id="Path-2" d="M708.709 665.996 C708.709 665.996 724.97 672.76 715.473 688.446 706.119 704.132 699.211 703.556 687.698 700.534 676.186 697.368 663.09 693.77 667.264 656.642 671.437 619.514 713.89 615.341 720.365 614.334 L723.675 622.68 C723.675 622.68 730.439 602.246 738.785 594.906 747.132 587.567 792.607 568.284 811.027 612.751 811.027 612.751 841.391 584.977 886.866 616.349 932.34 647.72 913.057 716.22 880.102 726.15 847.147 736.079 803.256 726.725 802.104 694.202 801.097 661.823 848.155 641.388 858.66 676.358 858.66 676.358 862.258 674.775 862.258 670.026 862.258 665.277 834.052 638.078 801.097 666.86 801.097 666.86 789.009 638.078 759.22 642.827 729.431 647.576 732.022 692.475 752.457 678.372 752.457 678.372 736.339 680.819 744.542 662.687 752.745 644.554 778.504 652.325 781.67 656.93 784.836 661.679 803.112 695.641 772.316 716.076 741.52 736.511 686.979 731.186 676.042 720.825 676.042 720.825 649.419 724.998 621.07 701.398 612.147 693.914 582.934 700.39 580.2 701.973 580.2 701.973 582.359 687.87 625.243 691.468 638.914 693.483 644.095 707.154 663.378 700.822 675.898 695.641 686.835 723.703 716.192 702.98 725.402 696.793 734.324 669.018 708.709 665.996 Z" fill-opacity="1" fill="url(#linear-gradient-2)" stroke="none"/>
 <defs>
  <linearGradient id="linear-gradient-3" gradientUnits="userSpaceOnUse" x1="645.443" y1="40" x2="645.443" y2="179.275">
   <stop offset="0" stop-color="#383838" stop-opacity="1"/>
   <stop offset="1" stop-color="#ffffff" stop-opacity="1"/>
  </linearGradient>
 </defs>
 <path id="Path-3" d="M541.798 87.075 C541.798 87.075 570.632 90.638 577.544 116.773 585.212 145.824 527.434 159.215 530.782 130.488 530.782 130.488 541.258 145.392 551.193 139.884 561.129 134.376 582.728 108.781 542.986 99.71 506.7 91.502 488.556 135.348 492.336 144.852 503.352 172.39 541.366 183.406 563.397 177.898 585.428 172.39 603.571 167.963 613.506 151.439 613.506 151.439 626.682 177.358 647.633 161.375 668.583 145.392 743.964 85.671 799.041 133.188 799.041 133.188 762.107 86.103 709.297 95.282 694.286 97.874 683.919 102.95 678.519 101.33 678.519 101.33 707.678 86.427 692.882 72.171 677.979 57.808 660.916 58.456 653.788 62.776 653.788 62.776 642.773 33.617 588.235 41.285 533.59 49.06 541.258 81.027 541.798 87.075 Z" fill-opacity="1" fill="url(#linear-gradient-3)" stroke="none"/>
 <defs>
  <linearGradient id="linear-gradient-4" gradientUnits="userSpaceOnUse" x1="309.766" y1="430.486" x2="309.766" y2="700">
   <stop offset="0" stop-color="#383838" stop-opacity="1"/>
   <stop offset="1" stop-color="#ffffff" stop-opacity="1"/>
  </linearGradient>
 </defs>
 <path id="Path-4" d="M109.174 521.371 C109.174 521.371 165.05 528.255 178.474 578.967 193.389 635.302 81.409 661.117 87.834 605.585 87.834 605.585 108.142 634.384 127.302 623.713 146.463 613.043 188.341 563.364 111.354 545.924 41.023 529.976 5.914 614.879 13.257 633.351 34.598 686.702 108.142 707.928 150.823 697.372 193.504 686.702 228.612 678.212 247.887 646.201 247.887 646.201 273.473 696.34 313.974 665.362 354.475 634.384 500.53 518.732 607.233 610.749 607.233 610.749 535.639 519.535 433.411 537.434 404.384 542.482 384.42 552.349 373.75 549.136 373.75 549.136 430.313 520.339 401.515 492.688 372.717 464.922 339.674 466.07 325.791 474.56 325.791 474.56 304.451 417.996 198.896 433.026 93.112 447.827 108.027 509.668 109.174 521.371 Z" fill-opacity="1" fill="url(#linear-gradient-4)" stroke="none"/>
 <defs>
  <linearGradient id="linear-gradient-5" gradientUnits="userSpaceOnUse" x1="191.392" y1="146.771" x2="191.392" y2="289.76">
   <stop offset="0" stop-color="#383838" stop-opacity="1"/>
   <stop offset="1" stop-color="#ffffff" stop-opacity="1"/>
  </linearGradient>
 </defs>
 <path id="Path-5" d="M13.4 227.3 C13.4 227.3 24 213.9 37.4 213.2 50.8 212.5 64.6 236.1 80.5 234.4 107.3 231.6 110.5 182.2 132 173.7 183.6 153.2 197 170.9 199.1 178.6 201.2 186.4 195 226 221 223.1 240.1 221 228.8 199.3 228.8 199.3 228.8 199.3 229.5 214.6 224.6 216 219.7 217.4 202.7 219.5 208.4 184.2 214 148.9 238.1 145.7 255.7 147 273.4 148.2 294.5 164.5 292.4 190.6 292.4 190.6 298.8 166.6 318.5 169.4 338.3 172.2 335.4 197.6 334 200.5 334 200.5 371.4 211.8 369.3 243.6 367.2 275.4 331.2 295.9 307.9 288.1 284.6 280.3 276.1 236.6 306.5 233.7 336.9 230.9 310.7 273.9 304.4 250.6 304.4 250.6 303.7 264 313.6 261.9 323.5 259.8 333.4 230.1 310.1 225.9 286.8 221.7 281.9 247.1 272.7 263.3 263.5 279.5 216.9 301.4 196.4 260.5 196.4 260.5 203.5 281.8 194.3 285.9 181.6 291.5 170.3 285.9 165.3 273.9 165.3 273.9 163.2 287.3 144.8 276.7 126.4 266.1 120.8 240.7 125.7 228 130.6 215.3 153.2 193.6 168.8 218.2 184.3 242.8 161 259.8 155.4 235.7 155.4 235.7 149.4 251 168.1 254.8 178.7 256.9 178.7 232.2 178 223.7 177.3 215.2 161.8 198.3 142 201.1 122.2 203.9 118.7 237.8 117.3 247.7 115.9 257.6 95.4 273.8 79.2 259.7 63 245.6 51.7 225.1 34.7 224.4 23.3 224 25.4 227.3 13.4 227.3 Z" fill-opacity="1" fill="url(#linear-gradient-5)" stroke="none"/>
 <defs>
  <linearGradient id="linear-gradient-6" gradientUnits="userSpaceOnUse" x1="664.293" y1="245.73" x2="664.293" y2="434.396">
   <stop offset="0" stop-color="#383838" stop-opacity="1"/>
   <stop offset="1" stop-color="#ffffff" stop-opacity="1"/>
  </linearGradient>
 </defs>
 <path id="Path-6" d="M899.4 352.1 C899.4 352.1 885.4 334.4 867.7 333.5 850 332.6 831.7 363.7 810.8 361.5 775.4 357.8 771.2 292.6 742.7 281.3 674.6 254.3 656.9 277.6 654.1 287.8 651.3 298.1 659.5 350.3 625.2 346.5 600 343.7 614.9 315.1 614.9 315.1 614.9 315.1 614 335.3 620.5 337.2 627 339.1 649.4 341.9 641.9 295.2 634.4 248.6 602.7 244.4 579.4 246 556.1 247.6 528.1 269.1 530.9 303.6 530.9 303.6 522.5 271.9 496.4 275.6 470.3 279.3 474 312.9 475.9 316.6 475.9 316.6 426.5 331.5 429.3 373.5 432.1 415.5 479.6 442.5 510.4 432.2 541.2 421.9 552.4 364.1 512.3 360.4 472.2 356.7 506.7 413.5 515.1 382.8 515.1 382.8 516 400.5 503 397.7 489.9 394.9 476.9 355.7 507.7 350.2 538.5 344.6 545 378.2 557.1 399.6 569.2 421 630.8 449.9 657.8 395.9 657.8 395.9 648.4 424 660.6 429.5 677.4 437 692.3 429.5 698.8 413.7 698.8 413.7 701.6 431.4 725.8 417.4 750 403.4 757.5 369.9 751 353.1 744.5 336.3 714.6 307.7 694.1 340.2 673.6 372.7 704.4 395.1 711.8 363.4 711.8 363.4 719.7 383.6 695 388.6 681 391.4 681 358.8 681.9 347.6 682.8 336.4 703.3 314 729.4 317.8 755.5 321.5 760.2 366.3 762 379.3 763.9 392.4 790.9 413.8 812.3 395.1 833.7 376.5 848.7 349.4 871 348.5 886.4 347.7 883.6 352.1 899.4 352.1 Z" fill-opacity="1" fill="url(#linear-gradient-6)" stroke="none"/>
</svg>
