<?xml version="1.0" encoding="UTF-8"?>
<svg width="1366px" height="768px" viewBox="0 0 1366 768" xmlns="http://www.w3.org/2000/svg" xmlns:xlink="http://www.w3.org/1999/xlink" version="1.1">
 <!-- Generated by Pixelmator Pro 1.5.4 -->
 <defs>
  <linearGradient id="linear-gradient" gradientUnits="userSpaceOnUse" x1="175.017" y1="158.358" x2="175.017" y2="319.826">
   <stop offset="0" stop-color="#383838" stop-opacity="1"/>
   <stop offset="1" stop-color="#ffffff" stop-opacity="1"/>
  </linearGradient>
 </defs>
 <path id="Path" d="M132.4 248.7 C132.4 248.7 150.3 256.2 139.9 273.6 129.5 291 122 290.4 109.2 286.9 96.5 283.4 82 279.4 86.6 238.3 91.2 197.2 138.2 192.6 145.4 191.4 L149.1 200.7 C149.1 200.7 156.6 178.1 165.9 170 175.2 161.9 225.5 140.5 245.8 189.7 245.8 189.7 279.4 159 329.7 193.8 380 228.5 358.6 304.3 322.2 315.3 285.7 326.3 237.1 315.9 236 280 234.8 244.1 286.9 221.6 298.5 260.3 298.5 260.3 302.6 258.6 302.6 253.4 302.6 248.2 271.4 218.1 234.9 249.9 234.9 249.9 221.6 218.1 188.6 223.3 155.6 228.5 158.5 278.3 181.1 262.7 181.1 262.7 163.3 265.3 172.4 245.3 181.5 225.3 210 233.8 213.5 239 217 244.2 237.2 281.8 203.1 304.4 169 327 108.8 321.2 96.6 309.6 96.6 309.6 67.1 314.2 35.8 288.2 26 280 -6.4 287 -9.3 288.8 -9.3 288.8 -7 273.2 40.5 277.2 55.6 279.5 61.3 294.6 82.7 287.6 96.5 281.8 108.6 312.9 141.1 289.9 150.9 282.9 160.8 252.2 132.4 248.7 Z" fill-opacity="1" fill="url(#linear-gradient)" stroke="none"/>
 <defs>
  <linearGradient id="linear-gradient-1" gradientUnits="userSpaceOnUse" x1="823.572" y1="40.761" x2="823.572" y2="276.314">
   <stop offset="0" stop-color="#383838" stop-opacity="1"/>
   <stop offset="1" stop-color="#ffffff" stop-opacity="1"/>
  </linearGradient>
 </defs>
 <path id="Path-1" d="M530.1 173.4 C530.1 173.4 547.6 151.3 569.7 150.1 591.8 148.9 614.6 187.8 640.7 185 684.9 180.3 690.1 99 725.7 84.9 810.7 51.1 832.8 80.2 836.3 93.1 839.8 105.9 829.6 171.2 872.4 166.5 903.8 163 885.2 127.3 885.2 127.3 885.2 127.3 886.4 152.6 878.2 154.9 870 157.2 842.1 160.7 851.4 102.5 860.7 44.3 900.3 39.1 929.4 41.1 958.5 43.1 993.4 70 990 113 990 113 1000.5 73.3 1033.1 78 1065.7 82.7 1061 124.6 1058.7 129.2 1058.7 129.2 1120.4 147.8 1116.9 200.2 1113.4 252.6 1054 286.4 1015.6 273.6 977.2 260.8 963.2 188.6 1013.3 183.9 1063.4 179.2 1020.3 250.3 1009.8 211.8 1009.8 211.8 1008.6 233.9 1024.9 230.4 1041.2 226.9 1057.5 178 1019.1 171 980.7 164 972.5 205.9 957.4 232.7 942.3 259.5 865.4 295.6 831.6 228 831.6 228 843.3 263.1 828.1 269.9 807.1 279.2 788.5 269.9 780.4 250.1 780.4 250.1 776.9 272.2 746.6 254.8 716.3 237.3 707 195.4 715.2 174.5 723.4 153.5 760.6 117.8 786.2 158.4 811.8 199 773.4 226.9 764.1 187.3 764.1 187.3 754.2 212.6 785.1 218.7 802.6 222.2 802.6 181.4 801.4 167.5 800.2 153.5 774.6 125.6 742 130.2 709.4 134.9 703.6 190.8 701.2 207.1 698.9 223.4 665.1 250.2 638.3 226.9 611.5 203.6 592.9 169.8 564.9 168.7 546.4 167.9 549.9 173.4 530.1 173.4 Z" fill-opacity="1" fill="url(#linear-gradient-1)" stroke="none"/>
 <defs>
  <linearGradient id="linear-gradient-2" gradientUnits="userSpaceOnUse" x1="730.066" y1="600.397" x2="730.066" y2="701.576">
   <stop offset="0" stop-color="#383838" stop-opacity="1"/>
   <stop offset="1" stop-color="#ffffff" stop-opacity="1"/>
  </linearGradient>
 </defs>
 <path id="Path-2" d="M703.5 657.1 C703.5 657.1 714.8 661.8 708.2 672.7 701.7 683.6 696.9 683.2 688.9 681.1 680.9 678.9 671.8 676.4 674.7 650.6 677.6 624.8 707.1 621.9 711.6 621.2 L713.9 627 C713.9 627 718.6 612.8 724.4 607.7 730.2 602.6 761.8 589.2 774.6 620.1 774.6 620.1 795.7 600.8 827.3 622.6 858.9 644.4 845.5 692 822.6 698.9 799.7 705.8 769.2 699.3 768.4 676.7 767.7 654.2 800.4 640 807.7 664.3 807.7 664.3 810.2 663.2 810.2 659.9 810.2 656.6 790.6 637.7 767.7 657.7 767.7 657.7 759.3 637.7 738.6 641 717.9 644.3 719.7 675.5 733.9 665.7 733.9 665.7 722.7 667.4 728.4 654.8 734.1 642.2 752 647.6 754.2 650.8 756.4 654.1 769.1 677.7 747.7 691.9 726.3 706.1 688.4 702.4 680.8 695.2 680.8 695.2 662.3 698.1 642.6 681.7 636.4 676.5 616.1 681 614.2 682.1 614.2 682.1 615.7 672.3 645.5 674.8 655 676.2 658.6 685.7 672 681.3 680.7 677.7 688.3 697.2 708.7 682.8 715.1 678.5 721.3 659.2 703.5 657.1 Z" fill-opacity="1" fill="url(#linear-gradient-2)" stroke="none"/>
 <defs>
  <linearGradient id="linear-gradient-3" gradientUnits="userSpaceOnUse" x1="1207.073" y1="265.31" x2="1207.073" y2="394.275">
   <stop offset="0" stop-color="#383838" stop-opacity="1"/>
   <stop offset="1" stop-color="#ffffff" stop-opacity="1"/>
  </linearGradient>
 </defs>
 <path id="Path-3" d="M1111.1 308.9 C1111.1 308.9 1137.8 312.2 1144.2 336.4 1151.3 363.3 1097.8 375.7 1100.9 349.1 1100.9 349.1 1110.6 362.9 1119.8 357.8 1129 352.7 1149 329 1112.2 320.6 1078.6 313 1061.8 353.6 1065.3 362.4 1075.5 387.9 1110.7 398.1 1131.1 393 1151.5 387.9 1168.3 383.8 1177.5 368.5 1177.5 368.5 1189.7 392.5 1209.1 377.7 1228.5 362.9 1298.3 307.6 1349.3 351.6 1349.3 351.6 1315.1 308 1266.2 316.5 1252.3 318.9 1242.7 323.6 1237.7 322.1 1237.7 322.1 1264.7 308.3 1251 295.1 1237.2 281.8 1221.4 282.4 1214.8 286.4 1214.8 286.4 1204.6 259.4 1154.1 266.5 1103.5 273.7 1110.6 303.3 1111.1 308.9 Z" fill-opacity="1" fill="url(#linear-gradient-3)" stroke="none"/>
 <defs>
  <linearGradient id="linear-gradient-4" gradientUnits="userSpaceOnUse" x1="270.567" y1="472.486" x2="270.567" y2="707.39">
   <stop offset="0" stop-color="#383838" stop-opacity="1"/>
   <stop offset="1" stop-color="#ffffff" stop-opacity="1"/>
  </linearGradient>
 </defs>
 <path id="Path-4" d="M445.4 551.7 C445.4 551.7 396.7 557.7 385 601.9 372 651 469.6 673.5 464 625.1 464 625.1 446.3 650.2 429.6 640.9 412.9 631.6 376.4 588.3 443.5 573.1 504.8 559.2 535.4 633.2 529 649.3 510.4 695.8 446.3 714.3 409.1 705.1 371.9 695.8 341.3 688.4 324.5 660.5 324.5 660.5 302.2 704.2 266.9 677.2 231.6 650.2 104.3 549.4 11.3 629.6 11.3 629.6 73.7 550.1 162.8 565.7 188.1 570.1 205.5 578.7 214.8 575.9 214.8 575.9 165.5 550.8 190.6 526.7 215.7 502.5 244.5 503.5 256.6 510.9 256.6 510.9 275.2 461.6 367.2 474.7 459.4 487.6 446.4 541.5 445.4 551.7 Z" fill-opacity="1" fill="url(#linear-gradient-4)" stroke="none"/>
 <defs>
  <linearGradient id="linear-gradient-5" gradientUnits="userSpaceOnUse" x1="530.392" y1="286.771" x2="530.392" y2="429.76">
   <stop offset="0" stop-color="#383838" stop-opacity="1"/>
   <stop offset="1" stop-color="#ffffff" stop-opacity="1"/>
  </linearGradient>
 </defs>
 <path id="Path-5" d="M352.4 367.3 C352.4 367.3 363 353.9 376.4 353.2 389.8 352.5 403.6 376.1 419.5 374.4 446.3 371.6 449.5 322.2 471 313.7 522.6 293.2 536 310.9 538.1 318.6 540.2 326.4 534 366 560 363.1 579.1 361 567.8 339.3 567.8 339.3 567.8 339.3 568.5 354.6 563.6 356 558.7 357.4 541.7 359.5 547.4 324.2 553 288.9 577.1 285.7 594.7 287 612.4 288.2 633.5 304.5 631.4 330.6 631.4 330.6 637.8 306.6 657.5 309.4 677.3 312.2 674.4 337.6 673 340.5 673 340.5 710.4 351.8 708.3 383.6 706.2 415.4 670.2 435.9 646.9 428.1 623.6 420.3 615.1 376.6 645.5 373.7 675.9 370.9 649.7 413.9 643.4 390.6 643.4 390.6 642.7 404 652.6 401.9 662.5 399.8 672.4 370.1 649.1 365.9 625.8 361.7 620.9 387.1 611.7 403.3 602.5 419.5 555.9 441.4 535.4 400.5 535.4 400.5 542.5 421.8 533.3 425.9 520.6 431.5 509.3 425.9 504.3 413.9 504.3 413.9 502.2 427.3 483.8 416.7 465.4 406.1 459.8 380.7 464.7 368 469.6 355.3 492.2 333.6 507.8 358.2 523.3 382.8 500 399.8 494.4 375.7 494.4 375.7 488.4 391 507.1 394.8 517.7 396.9 517.7 372.2 517 363.7 516.3 355.2 500.8 338.3 481 341.1 461.2 343.9 457.7 377.8 456.3 387.7 454.9 397.6 434.4 413.8 418.2 399.7 402 385.6 390.7 365.1 373.7 364.4 362.3 364 364.4 367.3 352.4 367.3 Z" fill-opacity="1" fill="url(#linear-gradient-5)" stroke="none"/>
 <defs>
  <linearGradient id="linear-gradient-6" gradientUnits="userSpaceOnUse" x1="1115.293" y1="440.73" x2="1115.293" y2="629.396">
   <stop offset="0" stop-color="#383838" stop-opacity="1"/>
   <stop offset="1" stop-color="#ffffff" stop-opacity="1"/>
  </linearGradient>
 </defs>
 <path id="Path-6" d="M1350.4 547.1 C1350.4 547.1 1336.4 529.4 1318.7 528.5 1301 527.6 1282.7 558.7 1261.8 556.5 1226.4 552.8 1222.2 487.6 1193.7 476.3 1125.6 449.3 1107.9 472.6 1105.1 482.8 1102.3 493.1 1110.5 545.3 1076.2 541.5 1051 538.7 1065.9 510.1 1065.9 510.1 1065.9 510.1 1065 530.3 1071.5 532.2 1078 534.1 1100.4 536.9 1092.9 490.2 1085.4 443.6 1053.7 439.4 1030.4 441 1007.1 442.6 979.1 464.1 981.9 498.6 981.9 498.6 973.5 466.9 947.4 470.6 921.3 474.3 925 507.9 926.9 511.6 926.9 511.6 877.5 526.5 880.3 568.5 883.1 610.5 930.6 637.5 961.4 627.2 992.2 616.9 1003.4 559.1 963.3 555.4 923.2 551.7 957.7 608.5 966.1 577.8 966.1 577.8 967 595.5 954 592.7 940.9 589.9 927.9 550.7 958.7 545.2 989.5 539.6 996 573.2 1008.1 594.6 1020.2 616 1081.8 644.9 1108.8 590.9 1108.8 590.9 1099.4 619 1111.6 624.5 1128.4 632 1143.3 624.5 1149.8 608.7 1149.8 608.7 1152.6 626.4 1176.8 612.4 1201 598.4 1208.5 564.9 1202 548.1 1195.5 531.3 1165.6 502.7 1145.1 535.2 1124.6 567.7 1155.4 590.1 1162.8 558.4 1162.8 558.4 1170.7 578.6 1146 583.6 1132 586.4 1132 553.8 1132.9 542.6 1133.8 531.4 1154.3 509 1180.4 512.8 1206.5 516.5 1211.2 561.3 1213 574.3 1214.9 587.4 1241.9 608.8 1263.3 590.1 1284.7 571.5 1299.7 544.4 1322 543.5 1337.4 542.7 1334.6 547.1 1350.4 547.1 Z" fill-opacity="1" fill="url(#linear-gradient-6)" stroke="none"/>
</svg>
